<svg width="2500" height="833" viewBox="0 0 2500 833" fill="none" xmlns="http://www.w3.org/2000/svg">
<g clip-path="url(#clip0_359_6)">
<path d="M180.16 4.80835C167.638 5.19447 158.292 10.3676 155.067 19.6169L78.2815 236.673C77.0837 240.535 73.1084 259.279 87.7458 259.433H555.583C568.101 259.051 577.315 253.737 580.536 244.488L657.321 27.5719C658.523 23.7107 662.63 4.96192 647.997 4.80835H180.16Z" fill="#0A267C"/>
<path d="M796.153 4.80835C783.631 5.19447 774.281 10.3676 771.06 19.6169L694.275 236.673C693.072 240.535 689.097 259.279 703.735 259.433H1171.58C1184.1 259.051 1193.31 253.737 1196.53 244.488L1273.32 27.5719C1274.52 23.7107 1278.63 4.96192 1263.99 4.80835H796.153Z" fill="#820009"/>
<path d="M147.4 623.5L219 335.5H283L211.4 623.5H147.4ZM146.6 623.5L75 335.5H139L210.6 623.5H146.6ZM319.313 623.5V335.5H385.713V623.5H319.313ZM494.778 578.7V528.3H597.178V578.7H494.778ZM569.178 335.5L497.578 623.5H433.578L505.178 335.5H569.178ZM569.978 335.5L641.578 623.5H577.578L505.978 335.5H569.978ZM734.009 546.3V335.5H800.409V546.3H734.009ZM800.409 545.9C800.409 572.3 793.209 592.967 778.809 607.9C764.409 622.567 744.276 629.9 718.409 629.9L710.409 579.5C715.476 579.5 719.743 578.167 723.209 575.5C726.676 572.833 729.343 568.967 731.209 563.9C733.076 558.833 734.009 552.833 734.009 545.9H800.409ZM692.809 572.7C695.209 574.833 697.876 576.567 700.809 577.9C703.743 578.967 706.943 579.5 710.409 579.5L718.409 629.9C709.876 629.9 701.609 628.7 693.609 626.3C685.876 623.9 677.876 619.767 669.609 613.9L692.809 572.7ZM905.7 578.7V528.3H1008.1V578.7H905.7ZM980.1 335.5L908.5 623.5H844.5L916.1 335.5H980.1ZM980.9 335.5L1052.5 623.5H988.5L916.9 335.5H980.9ZM1184.52 546.3V412.7H1250.92V546.3H1184.52ZM1184.52 413.1C1184.52 397.1 1188.65 382.833 1196.92 370.3C1205.18 357.5 1216.38 347.5 1230.52 340.3C1244.65 332.833 1260.65 329.1 1278.52 329.1V379.5C1269.98 379.5 1263.18 382.433 1258.12 388.3C1253.32 394.167 1250.92 402.433 1250.92 413.1H1184.52ZM1184.52 545.9H1250.92C1250.92 556.567 1253.32 564.833 1258.12 570.7C1263.18 576.567 1269.98 579.5 1278.52 579.5V629.9C1260.65 629.9 1244.65 626.3 1230.52 619.1C1216.38 611.633 1205.18 601.633 1196.92 589.1C1188.65 576.3 1184.52 561.9 1184.52 545.9ZM1314.12 427.1C1313.32 412.167 1309.72 400.567 1303.32 392.3C1296.92 383.767 1288.52 379.5 1278.12 379.5V329.1C1305.58 329.1 1327.72 336.833 1344.52 352.3C1361.32 367.5 1371.05 388.967 1373.72 416.7L1314.12 427.1ZM1314.12 531.9L1373.72 542.3C1371.05 569.767 1361.32 591.233 1344.52 606.7C1327.72 622.167 1305.58 629.9 1278.12 629.9V579.5C1288.52 579.5 1296.92 575.367 1303.32 567.1C1309.72 558.567 1313.32 546.833 1314.12 531.9ZM1536.41 545.9V412.7H1602.81V545.9H1536.41ZM1415.61 545.9V412.7H1482.01V545.9H1415.61ZM1602.81 413.5H1536.41C1536.41 402.833 1533.88 394.567 1528.81 388.7C1524.01 382.833 1517.34 379.9 1508.81 379.9V329.5C1526.68 329.5 1542.68 333.233 1556.81 340.7C1570.94 347.9 1582.14 357.9 1590.41 370.7C1598.68 383.233 1602.81 397.5 1602.81 413.5ZM1415.61 413.5C1415.61 397.5 1419.74 383.233 1428.01 370.7C1436.28 357.9 1447.48 347.9 1461.61 340.7C1475.74 333.233 1491.74 329.5 1509.61 329.5V379.9C1501.08 379.9 1494.28 382.833 1489.21 388.7C1484.41 394.567 1482.01 402.833 1482.01 413.5H1415.61ZM1602.81 545.5C1602.81 561.5 1598.68 575.9 1590.41 588.7C1582.14 601.233 1570.94 611.233 1556.81 618.7C1542.68 625.9 1526.68 629.5 1508.81 629.5V579.1C1517.34 579.1 1524.01 576.167 1528.81 570.3C1533.88 564.433 1536.41 556.167 1536.41 545.5H1602.81ZM1415.61 545.5H1482.01C1482.01 556.167 1484.41 564.433 1489.21 570.3C1494.28 576.167 1501.08 579.1 1509.61 579.1V629.5C1491.74 629.5 1475.74 625.9 1461.61 618.7C1447.48 611.233 1436.28 601.233 1428.01 588.7C1419.74 575.9 1415.61 561.5 1415.61 545.5ZM1758.86 623.5L1821.26 335.5H1869.26L1806.86 623.5H1758.86ZM1757.26 623.5L1694.86 335.5H1742.86L1805.26 623.5H1757.26ZM1656.86 623.5V335.5H1723.26V623.5H1656.86ZM1840.86 623.5V335.5H1907.26V623.5H1840.86Z" fill="black"/>
<path d="M137.48 796.27C137.48 792.417 136.233 789.073 133.74 786.24C131.247 783.407 128.073 780.743 124.22 778.25C120.367 775.757 116.23 773.207 111.81 770.6C107.503 767.88 103.423 764.82 99.57 761.42C95.7167 757.907 92.5433 753.827 90.05 749.18C87.67 744.42 86.48 738.697 86.48 732.01H110.45C110.45 735.75 111.64 739.093 114.02 742.04C116.513 744.873 119.687 747.537 123.54 750.03C127.393 752.523 131.473 755.13 135.78 757.85C140.2 760.457 144.337 763.517 148.19 767.03C152.043 770.43 155.217 774.51 157.71 779.27C160.203 783.917 161.45 789.583 161.45 796.27H137.48ZM86.48 732.18C86.48 725.947 88.1233 720.507 91.41 715.86C94.6967 711.213 99.1733 707.53 104.84 704.81C110.62 702.09 117.137 700.73 124.39 700.73V719.43C120.083 719.43 116.683 720.563 114.19 722.83C111.697 725.097 110.45 728.213 110.45 732.18H86.48ZM161.45 796.27C161.45 802.39 159.807 807.83 156.52 812.59C153.233 817.237 148.7 820.92 142.92 823.64C137.253 826.36 130.793 827.72 123.54 827.72V808.85C127.847 808.85 131.247 807.773 133.74 805.62C136.233 803.353 137.48 800.237 137.48 796.27H161.45ZM136.97 733.37C136.403 728.837 134.987 725.38 132.72 723C130.453 720.62 127.677 719.43 124.39 719.43V700.73C130.397 700.73 135.78 701.92 140.54 704.3C145.3 706.567 149.21 709.853 152.27 714.16C155.33 718.353 157.313 723.453 158.22 729.46L136.97 733.37ZM106.54 787.77C106.993 794.457 108.693 799.67 111.64 803.41C114.7 807.037 118.667 808.85 123.54 808.85V827.72C112.547 827.72 103.65 824.547 96.85 818.2C90.05 811.853 86.0833 803.013 84.95 791.68L106.54 787.77ZM213.552 825L240.072 703.45H258.262L231.742 825H213.552ZM212.872 825L186.352 703.45H204.542L231.062 825H212.872ZM172.752 825V703.45H196.722V825H172.752ZM247.892 825V703.45H271.862V825H247.892ZM305.204 804.26V785.56H348.724V804.26H305.204ZM335.294 703.45L305.374 825H282.084L312.174 703.45H335.294ZM335.634 703.45L365.724 825H342.604L312.514 703.45H335.634ZM422.182 825L400.932 768.05H424.222L445.642 825H422.182ZM394.472 778.42V759.72H405.862V778.42H394.472ZM394.472 722.15V703.45H405.862V722.15H394.472ZM419.632 744.25V737.62H443.602V744.25H419.632ZM443.602 737.79H419.632C419.632 732.803 418.386 728.95 415.892 726.23C413.399 723.51 409.999 722.15 405.692 722.15V703.45C412.946 703.45 419.406 704.923 425.072 707.87C430.852 710.817 435.386 714.897 438.672 720.11C441.959 725.323 443.602 731.217 443.602 737.79ZM443.602 744.08C443.602 750.653 441.959 756.547 438.672 761.76C435.386 766.973 430.852 771.053 425.072 774C419.406 776.947 412.946 778.42 405.692 778.42V759.72C409.999 759.72 413.399 758.36 415.892 755.64C418.386 752.92 419.632 749.067 419.632 744.08H443.602ZM373.392 825V703.45H397.362V825H373.392ZM445.662 722.15V703.45H524.712V722.15H445.662ZM473.202 825V703.45H497.172V825H473.202ZM555.823 722.15V703.45H634.873V722.15H555.823ZM583.363 825V703.45H607.333V825H583.363ZM692.144 825L670.894 768.05H694.184L715.604 825H692.144ZM664.434 778.42V759.72H675.824V778.42H664.434ZM664.434 722.15V703.45H675.824V722.15H664.434ZM689.594 744.25V737.62H713.564V744.25H689.594ZM713.564 737.79H689.594C689.594 732.803 688.347 728.95 685.854 726.23C683.36 723.51 679.96 722.15 675.654 722.15V703.45C682.907 703.45 689.367 704.923 695.034 707.87C700.814 710.817 705.347 714.897 708.634 720.11C711.92 725.323 713.564 731.217 713.564 737.79ZM713.564 744.08C713.564 750.653 711.92 756.547 708.634 761.76C705.347 766.973 700.814 771.053 695.034 774C689.367 776.947 682.907 778.42 675.654 778.42V759.72C679.96 759.72 683.36 758.36 685.854 755.64C688.347 752.92 689.594 749.067 689.594 744.08H713.564ZM643.354 825V703.45H667.324V825H643.354ZM743.1 804.26V785.56H786.62V804.26H743.1ZM773.19 703.45L743.27 825H719.98L750.07 703.45H773.19ZM773.53 703.45L803.62 825H780.5L750.41 703.45H773.53ZM863.648 825L815.368 703.45H836.278L884.558 825H863.648ZM811.288 825V703.45H835.258V825H811.288ZM869.428 825V703.45H893.398V825H869.428ZM956.9 796.27C956.9 792.417 955.653 789.073 953.16 786.24C950.667 783.407 947.493 780.743 943.64 778.25C939.787 775.757 935.65 773.207 931.23 770.6C926.923 767.88 922.843 764.82 918.99 761.42C915.137 757.907 911.963 753.827 909.47 749.18C907.09 744.42 905.9 738.697 905.9 732.01H929.87C929.87 735.75 931.06 739.093 933.44 742.04C935.933 744.873 939.107 747.537 942.96 750.03C946.813 752.523 950.893 755.13 955.2 757.85C959.62 760.457 963.757 763.517 967.61 767.03C971.463 770.43 974.637 774.51 977.13 779.27C979.623 783.917 980.87 789.583 980.87 796.27H956.9ZM905.9 732.18C905.9 725.947 907.543 720.507 910.83 715.86C914.117 711.213 918.593 707.53 924.26 704.81C930.04 702.09 936.557 700.73 943.81 700.73V719.43C939.503 719.43 936.103 720.563 933.61 722.83C931.117 725.097 929.87 728.213 929.87 732.18H905.9ZM980.87 796.27C980.87 802.39 979.227 807.83 975.94 812.59C972.653 817.237 968.12 820.92 962.34 823.64C956.673 826.36 950.213 827.72 942.96 827.72V808.85C947.267 808.85 950.667 807.773 953.16 805.62C955.653 803.353 956.9 800.237 956.9 796.27H980.87ZM956.39 733.37C955.823 728.837 954.407 725.38 952.14 723C949.873 720.62 947.097 719.43 943.81 719.43V700.73C949.817 700.73 955.2 701.92 959.96 704.3C964.72 706.567 968.63 709.853 971.69 714.16C974.75 718.353 976.733 723.453 977.64 729.46L956.39 733.37ZM925.96 787.77C926.413 794.457 928.113 799.67 931.06 803.41C934.12 807.037 938.087 808.85 942.96 808.85V827.72C931.967 827.72 923.07 824.547 916.27 818.2C909.47 811.853 905.503 803.013 904.37 791.68L925.96 787.77ZM1013.25 722.15V703.45H1024.64V722.15H1013.25ZM1013.25 781.48V762.78H1024.64V781.48H1013.25ZM1038.41 747.31V737.79H1062.38V747.31H1038.41ZM1062.38 737.79H1038.41C1038.41 732.803 1037.17 728.95 1034.67 726.23C1032.18 723.51 1028.78 722.15 1024.47 722.15V703.45C1031.73 703.45 1038.19 704.923 1043.85 707.87C1049.63 710.817 1054.17 714.897 1057.45 720.11C1060.74 725.323 1062.38 731.217 1062.38 737.79ZM1062.38 747.14C1062.38 753.713 1060.74 759.607 1057.45 764.82C1054.17 770.033 1049.63 774.113 1043.85 777.06C1038.19 780.007 1031.73 781.48 1024.47 781.48V762.78C1028.78 762.78 1032.18 761.42 1034.67 758.7C1037.17 755.867 1038.41 752.013 1038.41 747.14H1062.38ZM992.172 825V703.45H1016.14V825H992.172ZM1123.23 793.21V735.07H1147.2V793.21H1123.23ZM1071.72 793.21V735.07H1095.69V793.21H1071.72ZM1147.2 735.24H1123.23C1123.23 730.253 1121.98 726.4 1119.49 723.68C1117 720.96 1113.6 719.6 1109.29 719.6V700.9C1116.54 700.9 1123 702.373 1128.67 705.32C1134.45 708.267 1138.98 712.347 1142.27 717.56C1145.56 722.773 1147.2 728.667 1147.2 735.24ZM1071.72 735.24C1071.72 728.667 1073.36 722.773 1076.65 717.56C1079.94 712.347 1084.41 708.267 1090.08 705.32C1095.86 702.373 1102.38 700.9 1109.63 700.9V719.6C1105.32 719.6 1101.92 720.96 1099.43 723.68C1096.94 726.4 1095.69 730.253 1095.69 735.24H1071.72ZM1147.2 793.04C1147.2 799.727 1145.56 805.677 1142.27 810.89C1138.98 815.99 1134.45 820.07 1128.67 823.13C1123 826.077 1116.54 827.55 1109.29 827.55V808.85C1113.6 808.85 1117 807.49 1119.49 804.77C1121.98 801.937 1123.23 798.027 1123.23 793.04H1147.2ZM1071.72 793.04H1095.69C1095.69 798.027 1096.94 801.937 1099.43 804.77C1101.92 807.49 1105.32 808.85 1109.63 808.85V827.55C1102.38 827.55 1095.86 826.077 1090.08 823.13C1084.41 820.07 1079.94 815.99 1076.65 810.89C1073.36 805.677 1071.72 799.727 1071.72 793.04ZM1210.39 825L1189.14 768.05H1212.43L1233.85 825H1210.39ZM1182.68 778.42V759.72H1194.07V778.42H1182.68ZM1182.68 722.15V703.45H1194.07V722.15H1182.68ZM1207.84 744.25V737.62H1231.81V744.25H1207.84ZM1231.81 737.79H1207.84C1207.84 732.803 1206.59 728.95 1204.1 726.23C1201.61 723.51 1198.21 722.15 1193.9 722.15V703.45C1201.15 703.45 1207.61 704.923 1213.28 707.87C1219.06 710.817 1223.59 714.897 1226.88 720.11C1230.17 725.323 1231.81 731.217 1231.81 737.79ZM1231.81 744.08C1231.81 750.653 1230.17 756.547 1226.88 761.76C1223.59 766.973 1219.06 771.053 1213.28 774C1207.61 776.947 1201.15 778.42 1193.9 778.42V759.72C1198.21 759.72 1201.61 758.36 1204.1 755.64C1206.59 752.92 1207.84 749.067 1207.84 744.08H1231.81ZM1161.6 825V703.45H1185.57V825H1161.6ZM1233.87 722.15V703.45H1312.92V722.15H1233.87ZM1261.41 825V703.45H1285.38V825H1261.41ZM1399.11 796.27C1399.11 792.417 1397.87 789.073 1395.37 786.24C1392.88 783.407 1389.71 780.743 1385.85 778.25C1382 775.757 1377.86 773.207 1373.44 770.6C1369.14 767.88 1365.06 764.82 1361.2 761.42C1357.35 757.907 1354.18 753.827 1351.68 749.18C1349.3 744.42 1348.11 738.697 1348.11 732.01H1372.08C1372.08 735.75 1373.27 739.093 1375.65 742.04C1378.15 744.873 1381.32 747.537 1385.17 750.03C1389.03 752.523 1393.11 755.13 1397.41 757.85C1401.83 760.457 1405.97 763.517 1409.82 767.03C1413.68 770.43 1416.85 774.51 1419.34 779.27C1421.84 783.917 1423.08 789.583 1423.08 796.27H1399.11ZM1348.11 732.18C1348.11 725.947 1349.76 720.507 1353.04 715.86C1356.33 711.213 1360.81 707.53 1366.47 704.81C1372.25 702.09 1378.77 700.73 1386.02 700.73V719.43C1381.72 719.43 1378.32 720.563 1375.82 722.83C1373.33 725.097 1372.08 728.213 1372.08 732.18H1348.11ZM1423.08 796.27C1423.08 802.39 1421.44 807.83 1418.15 812.59C1414.87 817.237 1410.33 820.92 1404.55 823.64C1398.89 826.36 1392.43 827.72 1385.17 827.72V808.85C1389.48 808.85 1392.88 807.773 1395.37 805.62C1397.87 803.353 1399.11 800.237 1399.11 796.27H1423.08ZM1398.6 733.37C1398.04 728.837 1396.62 725.38 1394.35 723C1392.09 720.62 1389.31 719.43 1386.02 719.43V700.73C1392.03 700.73 1397.41 701.92 1402.17 704.3C1406.93 706.567 1410.84 709.853 1413.9 714.16C1416.96 718.353 1418.95 723.453 1419.85 729.46L1398.6 733.37ZM1368.17 787.77C1368.63 794.457 1370.33 799.67 1373.27 803.41C1376.33 807.037 1380.3 808.85 1385.17 808.85V827.72C1374.18 827.72 1365.28 824.547 1358.48 818.2C1351.68 811.853 1347.72 803.013 1346.58 791.68L1368.17 787.77ZM1442.88 773.66V754.96H1494.9V773.66H1442.88ZM1486.4 825V703.45H1510.37V825H1486.4ZM1434.38 825V703.45H1458.35V825H1434.38ZM1543.76 804.26V785.56H1587.28V804.26H1543.76ZM1573.85 703.45L1543.93 825H1520.64L1550.73 703.45H1573.85ZM1574.19 703.45L1604.28 825H1581.16L1551.07 703.45H1574.19ZM1660.74 825L1639.49 768.05H1662.78L1684.2 825H1660.74ZM1633.03 778.42V759.72H1644.42V778.42H1633.03ZM1633.03 722.15V703.45H1644.42V722.15H1633.03ZM1658.19 744.25V737.62H1682.16V744.25H1658.19ZM1682.16 737.79H1658.19C1658.19 732.803 1656.94 728.95 1654.45 726.23C1651.96 723.51 1648.56 722.15 1644.25 722.15V703.45C1651.5 703.45 1657.96 704.923 1663.63 707.87C1669.41 710.817 1673.94 714.897 1677.23 720.11C1680.52 725.323 1682.16 731.217 1682.16 737.79ZM1682.16 744.08C1682.16 750.653 1680.52 756.547 1677.23 761.76C1673.94 766.973 1669.41 771.053 1663.63 774C1657.96 776.947 1651.5 778.42 1644.25 778.42V759.72C1648.56 759.72 1651.96 758.36 1654.45 755.64C1656.94 752.92 1658.19 749.067 1658.19 744.08H1682.16ZM1611.95 825V703.45H1635.92V825H1611.95ZM1697.86 825V703.45H1721.83V825H1697.86ZM1791.57 825L1743.29 703.45H1764.2L1812.48 825H1791.57ZM1739.21 825V703.45H1763.18V825H1739.21ZM1797.35 825V703.45H1821.32V825H1797.35ZM1870.54 776.55V757.85H1910.32V776.55H1870.54ZM1886.35 793.38V758.36H1910.32V793.38H1886.35ZM1834.84 793.38V735.07H1858.81V793.38H1834.84ZM1834.84 735.07C1834.84 728.497 1836.48 722.603 1839.77 717.39C1843.06 712.177 1847.53 708.097 1853.2 705.15C1858.98 702.203 1865.5 700.73 1872.75 700.73V719.43C1868.44 719.43 1865.04 720.79 1862.55 723.51C1860.06 726.23 1858.81 730.083 1858.81 735.07H1834.84ZM1834.84 793.21H1858.81C1858.81 798.197 1860.06 802.107 1862.55 804.94C1865.04 807.66 1868.44 809.02 1872.75 809.02V827.72C1865.5 827.72 1858.98 826.247 1853.2 823.3C1847.53 820.24 1843.06 816.16 1839.77 811.06C1836.48 805.847 1834.84 799.897 1834.84 793.21ZM1889.58 740.51C1889.13 733.937 1887.37 728.78 1884.31 725.04C1881.36 721.3 1877.45 719.43 1872.58 719.43V700.73C1883.57 700.73 1892.41 703.903 1899.1 710.25C1905.9 716.483 1909.92 725.267 1911.17 736.6L1889.58 740.51ZM1910.32 793.21C1910.32 799.897 1908.68 805.847 1905.39 811.06C1902.1 816.16 1897.63 820.24 1891.96 823.3C1886.29 826.247 1879.83 827.72 1872.58 827.72V809.02C1876.89 809.02 1880.23 807.66 1882.61 804.94C1885.1 802.107 1886.35 798.197 1886.35 793.21H1910.32Z" fill="black"/>
</g>
<defs>
<clipPath id="clip0_359_6">
<rect width="2500" height="833" fill="white"/>
</clipPath>
</defs>
</svg>
